<svg width="1128" height="784" viewBox="0 0 1128 784" fill="none" xmlns="http://www.w3.org/2000/svg">
<path d="M637 37H892V745H637V37Z" fill="#979592"/>
<rect x="72.7688" y="765.026" width="254.676" height="18.1912" fill="#999590"/>
<rect x="327.44" y="746.834" width="236.485" height="18.1912" fill="#999590"/>
<rect x="563.925" y="765.026" width="254.676" height="18.1912" fill="#999590"/>
<rect x="818.603" y="746.834" width="90.9558" height="18.1912" fill="#999590"/>
<rect x="909.553" y="765.026" width="163.72" height="18.1912" fill="#999590"/>
<rect width="18.1912" height="436.588" transform="matrix(-1 0 0 1 18.1912 91.9567)" fill="#999590"/>
<rect x="18.1912" y="528.548" width="18.1912" height="218.294" fill="#999590"/>
<rect x="1073.28" y="637.691" width="18.1912" height="127.338" fill="#999590"/>
<rect x="1091.47" y="273.87" width="18.1912" height="363.823" fill="#999590"/>
<rect x="1073.28" y="219.299" width="18.1912" height="54.5735" fill="#999590"/>
<rect x="1055.09" y="164.721" width="18.1912" height="54.5735" fill="#999590"/>
<rect x="1073.28" y="146.528" width="36.3823" height="18.1912" fill="#999590"/>
<rect x="1109.66" y="37.3789" width="18.1912" height="109.147" fill="#999590"/>
<rect x="1091.47" y="19.1926" width="18.1912" height="18.1912" fill="#999590"/>
<rect x="782.218" y="0.999969" width="309.25" height="18.1912" fill="#999590"/>
<rect x="654.882" y="19.1926" width="127.338" height="18.1912" fill="#999590"/>
<rect x="145.527" y="0.999969" width="509.352" height="18.1912" fill="#999590"/>
<rect x="90.9553" y="19.1926" width="54.5735" height="18.1912" fill="#999590"/>
<rect x="72.7688" y="37.3789" width="18.1912" height="36.3823" fill="#999590"/>
<rect x="18.1912" y="73.7641" width="54.5735" height="18.1912" fill="#999590"/>
<rect x="36.3774" y="746.834" width="36.3823" height="18.1912" fill="#999590"/>
<rect x="145.527" y="19.1926" width="509.352" height="727.646" fill="#999590"/>
<rect x="90.9553" y="37.3789" width="54.5735" height="709.455" fill="#999590"/>
<rect x="36.3774" y="91.9567" width="54.5735" height="436.588" fill="#999590"/>
<rect x="18.1912" y="91.9567" width="18.1912" height="436.588" fill="#999590"/>
<rect x="1073.28" y="273.87" width="18.1912" height="363.823" fill="#999590"/>
<rect x="1073.28" y="37.3789" width="36.3823" height="109.147" fill="#999590"/>
<rect x="36.3774" y="528.548" width="54.5735" height="218.294" fill="#999590"/>
<rect x="72.7688" y="746.834" width="254.676" height="18.1912" fill="#999590"/>
<rect x="563.925" y="746.834" width="254.676" height="18.1912" fill="#999590"/>
<rect x="909.553" y="273.87" width="163.72" height="491.161" fill="#999590"/>
<rect x="654.882" y="37.3789" width="254.676" height="709.455" fill="#999590"/>
<rect x="782.218" y="19.1926" width="309.25" height="18.1912" fill="#999590"/>
<rect x="1055.09" y="219.299" width="18.1912" height="54.5735" fill="#999590"/>
<rect x="1055.09" y="37.3789" width="18.1912" height="127.338" fill="#999590"/>
<rect x="909.553" y="37.3789" width="145.529" height="236.485" fill="#999590"/>
<rect x="54" y="764" width="255" height="19" fill="#979592"/>
<rect x="309" y="745" width="236" height="19" fill="#979592"/>
<rect x="564" y="764" width="236" height="19" fill="#979592"/>
<rect x="800" y="745" width="92" height="19" fill="#979592"/>
<rect x="909" y="764" width="146" height="19" fill="#979592"/>
<rect y="528" width="17" height="217" fill="#979592"/>
<rect x="1055" y="637" width="18" height="127" fill="#979592"/>
<rect x="1073" y="273" width="19" height="364" fill="#979592"/>
<rect x="1055" y="219" width="18" height="54" fill="#979592"/>
<rect x="1036" y="163" width="19" height="56" fill="#979592"/>
<rect x="1055" y="146" width="37" height="17" fill="#979592"/>
<rect x="1092" y="36" width="17" height="110" fill="#979592"/>
<rect x="1073" y="19" width="19" height="17" fill="#979592"/>
<rect x="764" width="309" height="19" fill="#979592"/>
<rect x="637" y="19" width="127" height="17" fill="#979592"/>
<rect x="127" width="510" height="19" fill="#979592"/>
<rect x="73" y="19" width="54" height="17" fill="#979592"/>
<rect x="54" y="36" width="19" height="37" fill="#979592"/>
<rect y="73" width="54" height="19" fill="#979592"/>
<rect x="17" y="745" width="37" height="19" fill="#979592"/>
<rect x="73" y="36" width="54" height="709" fill="#979592"/>
<rect x="17" y="92" width="56" height="436" fill="#979592"/>
<rect y="92" width="17" height="436" fill="#979592"/>
<rect x="1055" y="273" width="18" height="364" fill="#979592"/>
<rect x="1055" y="36" width="37" height="110" fill="#979592"/>
<rect x="17" y="528" width="56" height="217" fill="#979592"/>
<rect x="54" y="745" width="255" height="19" fill="#979592"/>
<rect x="545" y="745" width="255" height="19" fill="#979592"/>
<rect x="892" y="273" width="163" height="491" fill="#979592"/>
<rect x="764" y="19" width="309" height="17" fill="#979592"/>
<rect x="1036" y="219" width="19" height="54" fill="#979592"/>
<rect x="1036" y="36" width="19" height="127" fill="#979592"/>
<rect x="892" y="36" width="144" height="237" fill="#979592"/>
<rect x="54" y="73" width="19" height="19" fill="#979592"/>
<rect x="1019" y="219" width="17" height="363" fill="#121211"/>
<rect x="1019" y="219" width="17" height="363" fill="#121211"/>
<rect x="73" y="219" width="17" height="363" fill="#121211"/>
<rect x="90.6385" y="163.727" width="18.1912" height="90.9558" transform="rotate(-180 90.6385 163.727)" fill="#121211"/>
<rect x="163.403" y="72.7701" width="18.1912" height="72.7646" transform="rotate(90 163.403 72.7701)" fill="#121211"/>
<rect x="90.6379" y="109.156" width="18.1912" height="18.1912" fill="#121211"/>
<rect x="108.837" y="90.9637" width="18.1912" height="18.1912" fill="#121211"/>
<rect x="127.023" y="127.343" width="18.1912" height="18.1912" fill="#121211"/>
<rect width="18.1912" height="90.9558" transform="matrix(-1 0 0 1 90.6385 636.686)" fill="#121211"/>
<rect width="18.1912" height="72.7646" transform="matrix(0 -1 -1 0 163.403 727.643)" fill="#121211"/>
<rect width="18.1912" height="18.1912" transform="matrix(1 0 0 -1 90.6379 691.265)" fill="#121211"/>
<rect width="18.1912" height="18.1912" transform="matrix(1 0 0 -1 108.837 709.457)" fill="#121211"/>
<rect width="18.1912" height="18.1912" transform="matrix(1 0 0 -1 127.023 673.072)" fill="#121211"/>
<rect x="1018.4" y="636.686" width="18.1912" height="90.9558" fill="#121211"/>
<rect x="945.631" y="727.643" width="18.1912" height="72.7646" transform="rotate(-90 945.631 727.643)" fill="#121211"/>
<rect x="1018.4" y="691.265" width="18.1912" height="18.1912" transform="rotate(180 1018.4 691.265)" fill="#121211"/>
<rect x="1000.2" y="709.457" width="18.1912" height="18.1912" transform="rotate(180 1000.2 709.457)" fill="#121211"/>
<rect x="982.011" y="673.072" width="18.1912" height="18.1912" transform="rotate(180 982.011 673.072)" fill="#121211"/>
<rect width="18.1912" height="90.9558" transform="matrix(1 0 0 -1 1018.4 163.727)" fill="#121211"/>
<rect width="18.1912" height="72.7646" transform="matrix(0 1 1 0 945.631 72.7701)" fill="#121211"/>
<rect width="18.1912" height="18.1912" transform="matrix(-1 0 0 1 1018.4 109.156)" fill="#121211"/>
<rect width="18.1912" height="18.1912" transform="matrix(-1 0 0 1 1000.2 90.9637)" fill="#121211"/>
<rect width="18.1912" height="18.1912" transform="matrix(-1 0 0 1 982.011 127.343)" fill="#121211"/>
<rect width="19" height="364" transform="matrix(1 0 0 -1 1073 637)" fill="#21201F"/>
<rect x="1073" y="764" width="18" height="127" transform="rotate(180 1073 764)" fill="#21201F"/>
<rect x="1055" y="783" width="146" height="19" transform="rotate(180 1055 783)" fill="#21201F"/>
<rect x="909" y="764" width="109" height="19" transform="rotate(180 909 764)" fill="#21201F"/>
<rect x="800" y="783" width="236" height="19" transform="rotate(180 800 783)" fill="#21201F"/>
<rect x="564" y="764" width="255" height="19" transform="rotate(180 564 764)" fill="#21201F"/>
<rect x="309" y="783" width="255" height="19" transform="rotate(180 309 783)" fill="#21201F"/>
<rect x="54" y="764" width="37" height="19" transform="rotate(180 54 764)" fill="#21201F"/>
<rect x="17" y="745" width="17" height="217" transform="rotate(180 17 745)" fill="#21201F"/>
<rect width="18" height="36" transform="matrix(1 0 0 -1 1055 255)" fill="#21201F"/>
<rect width="19" height="56" transform="matrix(1 0 0 -1 1036 219)" fill="#21201F"/>
<rect width="19" height="17" transform="matrix(1 0 0 -1 1073 163)" fill="#21201F"/>
<rect width="19" height="35" transform="matrix(1 0 0 -1 1073 54)" fill="#21201F"/>
<rect width="18" height="36" transform="matrix(1 0 0 -1 1055 36)" fill="#21201F"/>
<rect width="17" height="110" transform="matrix(1 0 0 -1 1092 146)" fill="#21201F"/>
<rect y="73" width="54" height="19" fill="#21201F"/>
<rect x="54" y="36" width="19" height="37" fill="#21201F"/>
<rect x="73" y="19" width="54" height="17" fill="#21201F"/>
<rect x="127" width="510" height="19" fill="#21201F"/>
<rect x="637" y="19" width="127" height="17" fill="#21201F"/>
<rect x="764" width="291" height="19" fill="#21201F"/>
<rect x="1055" y="491" width="18" height="37" fill="#21201F"/>
<rect x="1055" y="328" width="18" height="18" fill="#21201F"/>
<rect x="1055" y="73" width="37" height="19" fill="#21201F"/>
<rect x="1073" y="92" width="19" height="17" fill="#21201F"/>
<rect x="819" y="19" width="127" height="17" fill="#21201F"/>
<rect x="854" y="36" width="38" height="18" fill="#21201F"/>
<rect x="436" y="19" width="36" height="17" fill="#21201F"/>
<rect x="455" y="36" width="17" height="18" fill="#21201F"/>
<rect x="564" y="19" width="54" height="17" fill="#21201F"/>
<rect x="127" y="19" width="17" height="17" fill="#21201F"/>
<rect x="127" y="36" width="36" height="18" fill="#21201F"/>
<rect y="92" width="17" height="127" fill="#21201F"/>
<rect x="17" y="92" width="19" height="71" fill="#21201F"/>
<rect y="363" width="17" height="92" fill="#21201F"/>
<rect x="17" y="436" width="19" height="55" fill="#21201F"/>
<rect y="491" width="17" height="37" fill="#21201F"/>
<rect x="17" y="545" width="19" height="127" fill="#21201F"/>
<rect x="17" y="691" width="19" height="19" fill="#21201F"/>
<rect x="127" y="745" width="55" height="19" fill="#21201F"/>
<rect x="200" y="745" width="36" height="19" fill="#21201F"/>
<rect x="418" y="728" width="73" height="17" fill="#21201F"/>
<rect x="673" y="745" width="18" height="19" fill="#21201F"/>
<rect x="746" y="745" width="35" height="19" fill="#21201F"/>
<rect x="854" y="728" width="38" height="17" fill="#21201F"/>
<rect x="982" y="745" width="18" height="19" fill="#21201F"/>
</svg>
